<?xml version="1.0" standalone="no"?>
<!DOCTYPE svg PUBLIC "-//W3C//DTD SVG 20010904//EN"
 "http://www.w3.org/TR/2001/REC-SVG-20010904/DTD/svg10.dtd">
<svg version="1.0" xmlns="http://www.w3.org/2000/svg"
 width="204.000000pt" height="222.000000pt" viewBox="0 0 204.000000 222.000000"
 preserveAspectRatio="xMidYMid meet">

<g transform="translate(0.000000,222.000000) scale(0.100000,-0.100000)"
fill="#000000" stroke="none">
<path d="M348 2191 c-71 -23 -112 -49 -165 -103 -50 -52 -90 -128 -103 -199
-13 -68 -13 -691 0 -759 24 -126 103 -230 215 -286 55 -27 70 -29 188 -33
l127 -3 0 116 0 116 -82 0 c-99 0 -153 21 -189 71 l-24 34 -3 350 c-3 350 -3
351 20 394 43 81 41 81 463 81 418 0 419 0 463 -76 22 -39 22 -42 20 -396 -3
-342 -4 -358 -24 -385 -36 -50 -97 -73 -191 -73 l-83 0 0 -116 0 -116 128 4
c112 3 134 6 184 30 69 32 147 107 181 175 44 86 49 141 45 528 -3 349 -4 362
-26 418 -33 81 -116 168 -200 209 l-67 33 -410 2 c-374 2 -415 1 -467 -16z"/>
</g>
</svg>
