<?xml version="1.0" encoding="UTF-8"?>
<svg version="1.1" xmlns="http://www.w3.org/2000/svg" width="91" height="101">
<path d="M0 0 C0 3.96 0 7.92 0 12 C-3.96 12.66 -7.92 13.32 -12 14 C-12.76324426 17.05297704 -13.13167984 19.0999711 -13.16113281 22.13842773 C-13.17074036 22.94283798 -13.1803479 23.74724823 -13.19024658 24.57603455 C-13.1966214 25.86677635 -13.1966214 25.86677635 -13.203125 27.18359375 C-13.20882507 28.07611343 -13.21452515 28.96863312 -13.22039795 29.88819885 C-13.22983118 31.77351705 -13.23637526 33.65885161 -13.24023438 35.54418945 C-13.24995319 38.4236322 -13.28099754 41.30236487 -13.3125 44.18164062 C-13.31902929 46.01562077 -13.32428005 47.84960601 -13.328125 49.68359375 C-13.3404718 50.54206406 -13.3528186 51.40053436 -13.36553955 52.28501892 C-13.36983635 58.71515023 -13.36983635 58.71515023 -10 64 C-6.66974143 64.74159536 -6.66974143 64.74159536 -2.8125 64.59375 C-2.11358643 64.59379028 -1.41467285 64.59383057 -0.69458008 64.59387207 C0.78150435 64.58851618 2.25758797 64.57092965 3.73339844 64.54199219 C5.99242296 64.50014038 8.24846581 64.50092125 10.5078125 64.5078125 C17.4655465 64.95821884 17.4655465 64.95821884 23.67863464 62.74450684 C25.33414504 60.55885152 25.37455192 59.39073836 25.37231445 56.66796875 C25.37854324 55.79696533 25.38477203 54.92596191 25.39118958 54.02856445 C25.38197983 53.09101318 25.37277008 52.15346191 25.36328125 51.1875 C25.36377975 50.22223389 25.36427826 49.25696777 25.36479187 48.26245117 C25.36245123 46.22149599 25.35272332 44.18053793 25.33618164 42.13964844 C25.31259133 39.01210777 25.31562057 35.88541951 25.32226562 32.7578125 C25.31668883 30.77603657 25.30957894 28.79426425 25.30078125 26.8125 C25.30169266 25.87494873 25.30260406 24.93739746 25.30354309 23.97143555 C25.28924507 22.66493042 25.28924507 22.66493042 25.2746582 21.33203125 C25.27005081 20.56608643 25.26544342 19.8001416 25.26069641 19.01098633 C25.1102163 16.68526862 25.1102163 16.68526862 23 14 C19.44327821 12.7811879 19.44327821 12.7811879 16 12 C16 8.04 16 4.08 16 0 C23.40661224 0.40035742 28.0264404 0.97245182 33.4375 6.45703125 C37.32711891 10.82180247 38.10876555 14.05152273 38.17700195 19.73339844 C38.19625481 21.13570709 38.19625481 21.13570709 38.21589661 22.56634521 C38.22328354 23.57054504 38.23067047 24.57474487 38.23828125 25.609375 C38.246353 26.65015198 38.25442474 27.69092896 38.26274109 28.76324463 C38.27656328 30.96551863 38.28729376 33.16781388 38.29516602 35.37011719 C38.30668561 37.61627502 38.32713691 39.86240548 38.35668945 42.10839844 C38.39945938 45.35891269 38.41554878 48.60861393 38.42578125 51.859375 C38.44328934 52.85547791 38.46079742 53.85158081 38.47883606 54.87786865 C38.45963577 61.09611817 37.59273601 65.82560221 34 71 C31.5 73.375 31.5 73.375 29 75 C28.45762695 75.35658691 27.91525391 75.71317383 27.35644531 76.08056641 C23.8931976 77.43185017 20.4632311 77.32525109 16.796875 77.3359375 C15.60194427 77.3459227 15.60194427 77.3459227 14.38287354 77.35610962 C12.69846906 77.36622091 11.01402464 77.37092711 9.32958984 77.37060547 C6.772426 77.3749618 4.217013 77.41124807 1.66015625 77.44921875 C0.01823502 77.45509091 -1.62369435 77.45905763 -3.265625 77.4609375 C-4.02111633 77.47530853 -4.77660767 77.48967957 -5.55499268 77.50448608 C-12.25899034 77.44776381 -17.5446082 75.39077622 -22.375 70.6875 C-26.22316975 64.32321926 -26.30793059 57.99491992 -26.30078125 50.75390625 C-26.30506638 49.78396225 -26.3093515 48.81401825 -26.31376648 47.81468201 C-26.31948726 45.77156349 -26.32002673 43.72842462 -26.31567383 41.68530273 C-26.31251337 38.57565271 -26.33600339 35.46695457 -26.36132812 32.35742188 C-26.36360144 30.36458452 -26.36430446 28.37174464 -26.36328125 26.37890625 C-26.372491 25.45783585 -26.38170074 24.53676544 -26.39118958 23.58778381 C-26.34498144 17.07632234 -25.53054719 11.31854037 -21.45703125 5.9765625 C-14.72832457 0.44655654 -8.5265399 -0.30451928 0 0 Z " fill="#0F7E85" transform="translate(53,24)"/>
<path d="M0 0 C0.74798355 -0.00428513 1.4959671 -0.00857025 2.26661682 -0.01298523 C3.8389485 -0.01869415 5.41130658 -0.01925434 6.98364258 -0.01489258 C9.36911705 -0.01173172 11.75335014 -0.03523647 14.13867188 -0.06054688 C15.67577971 -0.06282039 17.21289083 -0.06352312 18.75 -0.0625 C19.45233261 -0.07170975 20.15466522 -0.08091949 20.87828064 -0.09040833 C28.11607381 -0.02386837 34.71328176 2.07265676 39.94140625 7.30078125 C43.15394 12.41592133 43.3828801 16.57797592 43.33984375 22.42578125 C43.34271393 23.29090332 43.34558411 24.15602539 43.34854126 25.04736328 C43.35057523 26.86947284 43.34509218 28.69160456 43.33251953 30.51367188 C43.31645606 33.29216646 43.33239061 36.06920656 43.3515625 38.84765625 C43.34957995 40.62370111 43.34573603 42.39974506 43.33984375 44.17578125 C43.34591644 45.00094238 43.35198914 45.82610352 43.35824585 46.67626953 C43.28820476 52.46096255 42.28078832 56.76467841 38.22265625 61.1640625 C37.63484375 61.64230469 37.04703125 62.12054688 36.44140625 62.61328125 C35.5596875 63.34998047 35.5596875 63.34998047 34.66015625 64.1015625 C30.99484528 66.65894993 27.57186011 66.40603327 23.25390625 66.36328125 C22.07441406 66.35425781 20.89492188 66.34523438 19.6796875 66.3359375 C18.32423828 66.31853516 18.32423828 66.31853516 16.94140625 66.30078125 C16.94140625 62.34078125 16.94140625 58.38078125 16.94140625 54.30078125 C19.44791667 54.13802083 21.95442708 53.97526042 24.4609375 53.8125 C27.45554892 53.19471402 28.18283281 52.78915173 29.94140625 50.30078125 C30.26382358 47.67945339 30.40942106 45.2995302 30.41015625 42.67578125 C30.41776978 41.93247559 30.4253833 41.18916992 30.43322754 40.42333984 C30.44402353 38.85322425 30.44688364 37.28303688 30.44238281 35.71289062 C30.44140945 33.30868182 30.48304863 30.90765482 30.52734375 28.50390625 C30.53255015 26.97787124 30.53523895 25.45182514 30.53515625 23.92578125 C30.55155151 23.20696777 30.56794678 22.4881543 30.58483887 21.74755859 C30.60871004 19.47017114 30.60871004 19.47017114 29.94140625 16.30078125 C26.23918917 12.82345504 22.50831331 12.91524529 17.59375 12.90234375 C16.90003799 12.89947357 16.20632599 12.89660339 15.49159241 12.89364624 C14.0317401 12.89161309 12.57186009 12.89709044 11.11206055 12.90966797 C8.88202954 12.92575871 6.65380384 12.90978329 4.42382812 12.890625 C3.0012981 12.89260709 1.5787692 12.89645006 0.15625 12.90234375 C-1.131604 12.90572754 -2.41945801 12.90911133 -3.74633789 12.91259766 C-8.063126 13.40833919 -8.063126 13.40833919 -11.05859375 16.30078125 C-11.43960501 19.06263422 -11.57283018 21.42101044 -11.51953125 24.1796875 C-11.51861481 24.94756088 -11.51769836 25.71543427 -11.51675415 26.50657654 C-11.51071709 28.12806387 -11.49496766 29.74953998 -11.47021484 31.37084961 C-11.43367612 33.85767511 -11.42919564 36.34301209 -11.4296875 38.83007812 C-11.41985743 40.40496084 -11.40820091 41.97983343 -11.39453125 43.5546875 C-11.39119278 44.67346031 -11.39119278 44.67346031 -11.38778687 45.81483459 C-11.44370092 50.01580553 -11.44370092 50.01580553 -9.05859375 53.30078125 C-6.39616554 53.76368346 -6.39616554 53.76368346 -3.43359375 53.92578125 C-1.65984375 54.04953125 0.11390625 54.17328125 1.94140625 54.30078125 C1.94140625 58.26078125 1.94140625 62.22078125 1.94140625 66.30078125 C-6.25508285 66.93038354 -12.47158676 67.12657216 -19.2890625 62.19921875 C-24.15802306 56.9755657 -24.5157375 51.76202365 -24.4921875 44.9921875 C-24.50005028 43.66476784 -24.50005028 43.66476784 -24.5080719 42.31053162 C-24.51447333 40.4455571 -24.51317952 38.58054211 -24.50463867 36.71557617 C-24.49613006 33.87540184 -24.52491317 31.03724155 -24.55664062 28.19726562 C-24.55825299 26.37890685 -24.55767443 24.56054454 -24.5546875 22.7421875 C-24.57153847 21.47937706 -24.57153847 21.47937706 -24.58872986 20.1910553 C-24.50810221 13.30697728 -22.71441413 8.95660163 -17.74609375 3.98828125 C-12.20727887 0.51042074 -6.40510545 -0.00828793 0 0 Z " fill="#0F8181" transform="translate(24.05859375,-0.30078125)"/>
</svg>
